<svg xmlns="http://www.w3.org/2000/svg" viewBox="0 0 1280 820" width="1280" height="820">
  <defs>
    <marker id="arrowO" markerWidth="10" markerHeight="8" refX="9" refY="4" orient="auto"><path d="M0,0 L10,4 L0,8 Z" fill="#d96b45"/></marker>
    <marker id="arrowG" markerWidth="10" markerHeight="8" refX="9" refY="4" orient="auto"><path d="M0,0 L10,4 L0,8 Z" fill="#5f8b4c"/></marker>
    <style><![CDATA[
      .bg{fill:#fbfaf7}.title{font:700 19px Georgia,serif;fill:#171717}.sub{font:13px Verdana,sans-serif;fill:#6b5b4d}.lane{font:700 12px Verdana,sans-serif;letter-spacing:1.5px;fill:#8a6a4d}.legend{font:12px Verdana,sans-serif;fill:#6b5b4d}
    ]]></style>
  </defs>
  <rect class="bg" x="0" y="0" width="1280" height="820"/>
  <text x="640" y="28" text-anchor="middle" class="lane">CAPWEAVER V0.4 CAPABILITY GOVERNANCE LOOP</text>
  <text x="280" y="126" text-anchor="middle" class="lane">CREATE ONLY AFTER RETRIEVAL MISSES</text>
  <text x="640" y="392" text-anchor="middle" class="lane">REVIEW AFTER TASK</text>
  <text x="875" y="548" text-anchor="middle" class="lane">LONG-TERM CAPABILITY LIBRARY</text>
  <path d="M 640 113 L 640 145" fill="none" stroke="#d96b45" stroke-width="2.4" marker-end="url(#arrowO)"/>
  <path d="M 500 184 L 420 184" fill="none" stroke="#d96b45" stroke-width="2.4" marker-end="url(#arrowO)"/>
  <path d="M 780 184 L 860 184" fill="none" stroke="#d96b45" stroke-width="2.4" marker-end="url(#arrowO)"/>
  <path d="M 280 223 L 280 275" fill="none" stroke="#5f8b4c" stroke-width="2.4" marker-end="url(#arrowG)"/>
  <path d="M 420 316 L 500 316" fill="none" stroke="#5f8b4c" stroke-width="2.4" marker-end="url(#arrowG)"/>
  <path d="M 1000 223 L 1000 248 L 780 248 L 780 316" fill="none" stroke="#d96b45" stroke-width="2.4" marker-end="url(#arrowO)"/>
  <path d="M 640 357 L 640 410" fill="none" stroke="#d96b45" stroke-width="2.4" marker-end="url(#arrowO)"/>
  <path d="M 640 492 L 640 535 L 195 535 L 195 565" fill="none" stroke="#6b7280" stroke-width="2.4" marker-end="url(#arrowO)" stroke-dasharray="7,5"/>
  <path d="M 640 492 L 640 535 L 465 535 L 465 565" fill="none" stroke="#5f8b4c" stroke-width="2.4" marker-end="url(#arrowG)"/>
  <path d="M 640 492 L 735 492 L 735 565" fill="none" stroke="#5f8b4c" stroke-width="2.4" marker-end="url(#arrowG)"/>
  <path d="M 780 452 L 1005 452 L 1005 565" fill="none" stroke="#5f8b4c" stroke-width="2.4" marker-end="url(#arrowG)"/>
  <path d="M 640 633 L 640 700" fill="none" stroke="#5f8b4c" stroke-width="2.4" marker-end="url(#arrowG)"/>
  <path d="M 1005 633 L 1005 700" fill="none" stroke="#5f8b4c" stroke-width="2.4" marker-end="url(#arrowG)"/>
  <path d="M 780 729 L 860 729" fill="none" stroke="#5f8b4c" stroke-width="2.4" marker-end="url(#arrowG)"/>
  <path d="M 1000 700 L 1000 675 L 735 675 L 735 633" fill="none" stroke="#6b7280" stroke-width="2.4" marker-end="url(#arrowO)" stroke-dasharray="7,5"/>
  <path d="M 500 729 L 445 729 L 445 184 L 500 184" fill="none" stroke="#6b7280" stroke-width="2.4" marker-end="url(#arrowO)" stroke-dasharray="7,5"/>
  <g>
    <rect x="500" y="45" width="280" height="68" rx="18" fill="#f7fff3" stroke="#93b57c" stroke-width="2"/>
    <text x="640.0" y="75" text-anchor="middle" class="title">Persistent Goal</text>
    <text x="640.0" y="98" text-anchor="middle" class="sub">/goal keeps direction</text>
  </g>
  <g>
    <rect x="500" y="145" width="280" height="78" rx="18" fill="#ffffff" stroke="#d7cfc4" stroke-width="2"/>
    <text x="640.0" y="175" text-anchor="middle" class="title">Search First</text>
    <text x="640.0" y="198" text-anchor="middle" class="sub">tool_search + skill_search</text>
  </g>
  <g>
    <rect x="140" y="145" width="280" height="78" rx="18" fill="#ffffff" stroke="#d7cfc4" stroke-width="2"/>
    <text x="280.0" y="175" text-anchor="middle" class="title">tool_forge</text>
    <text x="280.0" y="198" text-anchor="middle" class="sub">generate task-scoped tool</text>
  </g>
  <g>
    <rect x="860" y="145" width="280" height="78" rx="18" fill="#ffffff" stroke="#d7cfc4" stroke-width="2"/>
    <text x="1000.0" y="175" text-anchor="middle" class="title">Reuse Capability</text>
    <text x="1000.0" y="198" text-anchor="middle" class="sub">retained tool or skill</text>
  </g>
  <g>
    <rect x="140" y="275" width="280" height="82" rx="18" fill="#ffffff" stroke="#d7cfc4" stroke-width="2"/>
    <text x="280.0" y="305" text-anchor="middle" class="title">Ephemeral Tool</text>
    <text x="280.0" y="328" text-anchor="middle" class="sub">memory only, task-scoped</text>
  </g>
  <g>
    <rect x="500" y="275" width="280" height="82" rx="18" fill="#ffffff" stroke="#d7cfc4" stroke-width="2"/>
    <text x="640.0" y="305" text-anchor="middle" class="title">Execute Task</text>
    <text x="640.0" y="328" text-anchor="middle" class="sub">run with reused or forged capability</text>
  </g>
  <g>
    <rect x="500" y="410" width="280" height="82" rx="18" fill="#ffffff" stroke="#d7cfc4" stroke-width="2"/>
    <text x="640.0" y="440" text-anchor="middle" class="title">Post-task Review</text>
    <text x="640.0" y="463" text-anchor="middle" class="sub">retention + skillification</text>
  </g>
  <g>
    <rect x="80" y="565" width="230" height="68" rx="18" fill="#fff9f7" stroke="#d9b5a5" stroke-width="2"/>
    <text x="195.0" y="595" text-anchor="middle" class="title">Discard</text>
    <text x="195.0" y="618" text-anchor="middle" class="sub">remove temporary capability</text>
  </g>
  <g>
    <rect x="350" y="565" width="230" height="68" rx="18" fill="#ffffff" stroke="#d7cfc4" stroke-width="2"/>
    <text x="465.0" y="595" text-anchor="middle" class="title">Session Tool</text>
    <text x="465.0" y="618" text-anchor="middle" class="sub">reuse until process exits</text>
  </g>
  <g>
    <rect x="620" y="565" width="230" height="68" rx="18" fill="#f7fff3" stroke="#93b57c" stroke-width="2"/>
    <text x="735.0" y="595" text-anchor="middle" class="title">Retained Tool</text>
    <text x="735.0" y="618" text-anchor="middle" class="sub">saved in tool_store</text>
  </g>
  <g>
    <rect x="890" y="565" width="230" height="68" rx="18" fill="#f7fff3" stroke="#93b57c" stroke-width="2"/>
    <text x="1005.0" y="595" text-anchor="middle" class="title">Persistent Skill</text>
    <text x="1005.0" y="618" text-anchor="middle" class="sub">skill_store + SKILL.md</text>
  </g>
  <g>
    <rect x="500" y="700" width="280" height="58" rx="18" fill="#f7fff3" stroke="#93b57c" stroke-width="2"/>
    <text x="640.0" y="730" text-anchor="middle" class="title">Trajectory Log</text>
    <text x="640.0" y="753" text-anchor="middle" class="sub">~/.corecoder/trajectories</text>
  </g>
  <g>
    <rect x="860" y="700" width="280" height="58" rx="18" fill="#f7fff3" stroke="#93b57c" stroke-width="2"/>
    <text x="1000.0" y="730" text-anchor="middle" class="title">Curator</text>
    <text x="1000.0" y="753" text-anchor="middle" class="sub">score / improve / archive</text>
  </g>
  <g transform="translate(85,780)">
    <path d="M0 0 L45 0" stroke="#d96b45" stroke-width="2.4" marker-end="url(#arrowO)"/><text x="58" y="5" class="legend">control path</text>
    <path d="M190 0 L235 0" stroke="#5f8b4c" stroke-width="2.4" marker-end="url(#arrowG)"/><text x="248" y="5" class="legend">persistence / governance</text>
    <path d="M500 0 L545 0" stroke="#6b7280" stroke-width="2.4" stroke-dasharray="7,5" marker-end="url(#arrowO)"/><text x="558" y="5" class="legend">feedback / archive path</text>
  </g>
</svg>