<svg xmlns="http://www.w3.org/2000/svg" viewBox="0 0 960 700" width="960" height="700">
  <defs>
    <marker id="arrowA" markerWidth="10" markerHeight="7" refX="9" refY="3.5" orient="auto">
      <polygon points="0 0, 10 3.5, 0 7" fill="#d97757"/>
    </marker>
    <marker id="arrowB" markerWidth="10" markerHeight="7" refX="9" refY="3.5" orient="auto">
      <polygon points="0 0, 10 3.5, 0 7" fill="#7b8b5c"/>
    </marker>
    <marker id="arrowC" markerWidth="10" markerHeight="7" refX="9" refY="3.5" orient="auto">
      <polygon points="0 0, 10 3.5, 0 7" fill="#8c6f5a"/>
    </marker>
    <marker id="arrowE" markerWidth="10" markerHeight="7" refX="9" refY="3.5" orient="auto">
      <polygon points="0 0, 10 3.5, 0 7" fill="#b45309"/>
    </marker>
    <marker id="arrowF" markerWidth="10" markerHeight="7" refX="9" refY="3.5" orient="auto">
      <polygon points="0 0, 10 3.5, 0 7" fill="#9a6fb0"/>
    </marker>
    <marker id="arrowG" markerWidth="10" markerHeight="7" refX="9" refY="3.5" orient="auto">
      <polygon points="0 0, 10 3.5, 0 7" fill="#d97757"/>
    </marker>
    <marker id="arrowH" markerWidth="10" markerHeight="7" refX="9" refY="3.5" orient="auto">
      <polygon points="0 0, 10 3.5, 0 7" fill="#8f8a80"/>
    </marker>
    <style>
    text { font-family: 'Helvetica Neue', Helvetica, Arial, 'PingFang SC', 'Microsoft YaHei', sans-serif; }
    .title { font-size: 24px; font-weight: 700; fill: #141413; }
    .subtitle { font-size: 13px; font-weight: 500; fill: #8f8a80; }
    .section { font-size: 13px; font-weight: 700; fill: #8b7355; letter-spacing: 1.4px; }
    .section-sub { font-size: 12px; font-weight: 500; fill: #b4aba0; }
    .node-title { font-size: 18px; font-weight: 700; fill: #141413; }
    .node-sub { font-size: 12px; font-weight: 500; fill: #6b6257; }
    .node-type { font-size: 11px; font-weight: 700; fill: #a29a8f; letter-spacing: 0.08em; }
    .arrow-label { font-size: 12px; font-weight: 600; fill: #6b6257; }
    .legend { font-size: 12px; font-weight: 500; fill: #6b6257; }
    .footnote { font-size: 12px; font-weight: 500; fill: #a29a8f; }
    </style>
  </defs>
  <rect width="960.0" height="700.0" fill="#f8f6f3"/>
  <text x="48.0" y="48" text-anchor="start" class="title">RAG Pipeline</text>
  <text x="48.0" y="72" text-anchor="start" class="subtitle">Retrieval-Augmented Generation Architecture</text>
  <line x1="48" y1="100" x2="912.0" y2="100" stroke="#ded8cf" stroke-width="1"/>
  <path d="M 240.0,338.0 L 230.0,338.0" fill="none" stroke="#d97757" stroke-width="2.0" marker-end="url(#arrowA)"/>
  <path d="M 320.0,300.0 L 510.0,256.0" fill="none" stroke="#b45309" stroke-width="2.0" marker-end="url(#arrowE)"/>
  <path d="M 510.0,136.0 L 510.0,180.0" fill="none" stroke="#8c6f5a" stroke-width="2.0" marker-end="url(#arrowC)"/>
  <path d="M 600.0,218.0 L 620.0,218.0" fill="none" stroke="#b45309" stroke-width="2.0" marker-end="url(#arrowE)"/>
  <path d="M 710.0,256.0 L 710.0,300.0" fill="none" stroke="#8c6f5a" stroke-width="2.0" marker-end="url(#arrowC)"/>
  <path d="M 710.0,376.0 L 510.0,420.0" fill="none" stroke="#b45309" stroke-width="2.0" marker-end="url(#arrowE)"/>
  <path d="M 320.0,376.0 L 510.0,420.0" fill="none" stroke="#d97757" stroke-width="2.0" marker-end="url(#arrowA)"/>
  <path d="M 600.0,458.0 L 620.0,458.0" fill="none" stroke="#d97757" stroke-width="2.0" marker-end="url(#arrowA)"/>
  <path d="M 800.0,458.0 L 820.0,458.0" fill="none" stroke="#d97757" stroke-width="2.0" marker-end="url(#arrowA)"/>
  <path d="M 820.0,458.0 L 240.0,338.0" fill="none" stroke="#d97757" stroke-width="2.0" marker-end="url(#arrowA)"/>
  <rect x="60.0" y="300.0" width="180.0" height="76.0" rx="10.0" fill="#fffcf7" stroke="#d9d0c3" stroke-width="1.8"/>
  <text x="150.0" y="338.0" text-anchor="middle" class="node-title">User</text>
  <rect x="230.0" y="300.0" width="180.0" height="76.0" rx="10.0" fill="#fffcf7" stroke="#d9d0c3" stroke-width="1.8"/>
  <text x="320.0" y="338.0" text-anchor="middle" class="node-title">Query
Processor</text>
  <rect x="420.0" y="180.0" width="180.0" height="76.0" rx="10.0" fill="#fffcf7" stroke="#d9d0c3" stroke-width="1.8"/>
  <text x="510.0" y="218.0" text-anchor="middle" class="node-title">Embedder</text>
  <rect x="620.0" y="180.0" width="180.0" height="76.0" rx="10.0" fill="#fffcf7" stroke="#d9d0c3" stroke-width="1.8"/>
  <text x="710.0" y="218.0" text-anchor="middle" class="node-title">Vector DB</text>
  <rect x="620.0" y="300.0" width="180.0" height="76.0" rx="10.0" fill="#fffcf7" stroke="#d9d0c3" stroke-width="1.8"/>
  <text x="710.0" y="338.0" text-anchor="middle" class="node-title">Re-ranker</text>
  <rect x="420.0" y="420.0" width="180.0" height="76.0" rx="10.0" fill="#fffcf7" stroke="#d9d0c3" stroke-width="1.8"/>
  <text x="510.0" y="458.0" text-anchor="middle" class="node-title">Prompt
Builder</text>
  <rect x="620.0" y="420.0" width="180.0" height="76.0" rx="10.0" fill="#fffcf7" stroke="#d9d0c3" stroke-width="1.8"/>
  <text x="710.0" y="458.0" text-anchor="middle" class="node-title">LLM</text>
  <rect x="820.0" y="420.0" width="180.0" height="76.0" rx="10.0" fill="#fffcf7" stroke="#d9d0c3" stroke-width="1.8"/>
  <text x="910.0" y="458.0" text-anchor="middle" class="node-title">Response</text>
  <rect x="420.0" y="60.0" width="180.0" height="76.0" rx="10.0" fill="#fffcf7" stroke="#d9d0c3" stroke-width="1.8"/>
  <text x="510.0" y="98.0" text-anchor="middle" class="node-title">Document
Store</text>
  <rect x="200.0" y="324.0" width="70" height="20" rx="6" fill="#f8f6f3" opacity="0.96"/>
  <text x="235.0" y="338.0" text-anchor="middle" class="arrow-label">question</text>
  <rect x="394.0" y="264.0" width="42" height="20" rx="6" fill="#f8f6f3" opacity="0.96"/>
  <text x="415.0" y="278.0" text-anchor="middle" class="arrow-label">text</text>
  <rect x="467.5" y="144.0" width="49" height="20" rx="6" fill="#f8f6f3" opacity="0.96"/>
  <text x="492.0" y="158.0" text-anchor="middle" class="arrow-label">index</text>
  <rect x="571.5" y="204.0" width="77" height="20" rx="6" fill="#f8f6f3" opacity="0.96"/>
  <text x="610.0" y="218.0" text-anchor="middle" class="arrow-label">embedding</text>
  <rect x="650.0" y="264.0" width="84" height="20" rx="6" fill="#f8f6f3" opacity="0.96"/>
  <text x="692.0" y="278.0" text-anchor="middle" class="arrow-label">top-k docs</text>
  <rect x="578.5" y="384.0" width="63" height="20" rx="6" fill="#f8f6f3" opacity="0.96"/>
  <text x="610.0" y="398.0" text-anchor="middle" class="arrow-label">context</text>
  <rect x="380.0" y="384.0" width="70" height="20" rx="6" fill="#f8f6f3" opacity="0.96"/>
  <text x="415.0" y="398.0" text-anchor="middle" class="arrow-label">question</text>
  <rect x="582.0" y="444.0" width="56" height="20" rx="6" fill="#f8f6f3" opacity="0.96"/>
  <text x="610.0" y="458.0" text-anchor="middle" class="arrow-label">prompt</text>
  <rect x="782.0" y="444.0" width="56" height="20" rx="6" fill="#f8f6f3" opacity="0.96"/>
  <text x="810.0" y="458.0" text-anchor="middle" class="arrow-label">answer</text>
  <rect x="495.0" y="368.0" width="70" height="20" rx="6" fill="#f8f6f3" opacity="0.96"/>
  <text x="530.0" y="382.0" text-anchor="middle" class="arrow-label">response</text>
</svg>